<svg xmlns="http://www.w3.org/2000/svg" viewBox="0 0 196 52" role="img" aria-label="Fayiloli EDMS">
  <title>Fayiloli EDMS</title>
  <defs>
    <linearGradient id="ll-bg" x1="0" y1="0" x2="1" y2="1">
      <stop offset="0%"   stop-color="#8b5cf6"/>
      <stop offset="100%" stop-color="#3730a3"/>
    </linearGradient>
    <linearGradient id="ll-flow" x1="0" y1="0" x2="1" y2="0">
      <stop offset="0%"   stop-color="white" stop-opacity="0.92"/>
      <stop offset="100%" stop-color="white" stop-opacity="0.25"/>
    </linearGradient>
    <clipPath id="ll-clip">
      <rect x="2" y="2" width="48" height="48" rx="10.5"/>
    </clipPath>
  </defs>

  <!-- Icon tile -->
  <rect x="2" y="2" width="48" height="48" rx="10.5" fill="url(#ll-bg)"/>
  <g clip-path="url(#ll-clip)">
    <path d="M11,9 Q9,9 9,11 L9,37 Q9,39 11,39 L29,39 Q31,39 31,37 L31,16 L24,9 Z"
          fill="rgba(255,255,255,0.97)"/>
    <path d="M24,9 L31,16 L24,16 Z" fill="rgba(255,255,255,0.28)"/>
    <rect x="12" y="21" width="15" height="2"  rx="1" fill="#4c1d95" opacity="0.30"/>
    <rect x="12" y="26" width="15" height="2"  rx="1" fill="#4c1d95" opacity="0.24"/>
    <rect x="12" y="31" width="10" height="2"  rx="1" fill="#4c1d95" opacity="0.18"/>
    <path d="M31,18 C37,12 43,18 45,24"
          fill="none" stroke="url(#ll-flow)" stroke-width="2.4" stroke-linecap="round"/>
    <path d="M31,26 C37,23 42,29 44,33"
          fill="none" stroke="rgba(255,255,255,0.48)" stroke-width="1.7" stroke-linecap="round"/>
    <path d="M42,21 L45.5,24 L42,27"
          fill="none" stroke="rgba(255,255,255,0.90)" stroke-width="2.1"
          stroke-linecap="round" stroke-linejoin="round"/>
  </g>

  <!-- Wordmark — WHITE text for dark backgrounds -->
  <text
    x="62" y="28"
    font-family="'Inter', 'Helvetica Neue', Arial, sans-serif"
    font-size="21"
    font-weight="800"
    fill="#f1f5f9"
    letter-spacing="-0.5"
    dominant-baseline="middle"
  >FAYILOLI</text>

  <text
    x="63" y="42"
    font-family="'Inter', 'Helvetica Neue', Arial, sans-serif"
    font-size="9.5"
    font-weight="700"
    fill="#a78bfa"
    letter-spacing="3"
    dominant-baseline="middle"
  >EDMS</text>

</svg>
